<svg preserveAspectRatio="none" overflow="visible" style="display: block;" width="22" height="22" viewBox="0 0 22 22" fill="none" xmlns="http://www.w3.org/2000/svg">
<g id="facebook-rounded-svgrepo-com 2">
<g clip-path="url(#clip0_0_4)">
<path id="Vector" d="M20.2812 0H1.71875C0.769141 0 0 0.769141 0 1.71875V20.2812C0 21.2309 0.769141 22 1.71875 22H20.2812C21.2309 22 22 21.2309 22 20.2812V1.71875C22 0.769141 21.2309 0 20.2812 0ZM13.4277 9.13516L13.3031 10.7809H11.6145V16.4957H9.4832V10.7809H8.34453V9.13516H9.4832V8.03086C9.4832 7.54531 9.49609 6.79336 9.84844 6.325C10.2223 5.83086 10.7336 5.4957 11.6145 5.4957C13.0496 5.4957 13.6512 5.70195 13.6512 5.70195L13.3676 7.38633C13.3676 7.38633 12.8949 7.24883 12.4523 7.24883C12.0098 7.24883 11.6145 7.40781 11.6145 7.85039V9.13516H13.4277Z" fill="white"/>
</g>
</g>
<defs>
<clipPath id="clip0_0_4">
<rect width="22" height="22" rx="4" fill="white"/>
</clipPath>
</defs>
</svg>
