<svg width="431" height="474" viewBox="0 0 431 474" fill="none" xmlns="http://www.w3.org/2000/svg">
<path d="M29.1298 357.598L25.8015 355.832L23.3912 359.039C17.0262 353.581 6.6387 341.677 0.928132 334.963L-5.4822 327.626C-8.20133 324.068 -21.7581 307.213 -24.7049 305.39C-38.0201 290.621 -50.5188 274.995 -63.2405 259.706C-75.5109 249.53 -89.6597 237.575 -98.5418 224.27C-107.597 215.215 -119.517 204.886 -123.259 192.184C-124.072 189.656 -124.317 186.629 -126.885 185.464C-132.229 183.045 -140.766 190.561 -144.62 183.551C-160.885 185.098 -173.292 189.368 -189.657 184.756C-193.643 184.851 -197.907 183.602 -201.086 181.164C-221.175 171.105 -228.759 149.987 -237.543 130.687C-225.552 127.488 -214.568 127.138 -202.267 128.542C-214.507 107.855 -220.194 87.4342 -219.954 63.2391C-207.227 66.4784 -193.373 69.5621 -183.032 78.0688C-173.479 83.6847 -165.828 89.7582 -158.056 97.5656L-157.13 98.7123C-158.374 109.683 -153.537 121.325 -149.101 131.055L-146.208 132.389C-138.819 137.037 -132.727 142.42 -126.624 148.644C-122.703 156.077 -121.727 163.247 -120.449 171.452L-120.468 172.523C-120.586 172.976 -120.736 173.416 -120.828 173.875C-120.846 173.959 -121.203 176.514 -121.188 176.57C-121.135 176.772 -115 180.122 -114.411 180.495C-105.011 186.43 -97.0581 193.69 -90.4774 202.651C-83.9389 208.553 -55.1307 249.944 -48.7547 259.965C-38.9591 272.059 -29.0337 284.046 -18.9786 295.925C-16.7692 302.302 -1.31727 320.731 3.59818 326.353C3.43112 325.451 3.46977 326.049 3.89524 324.559C8.05583 326.414 13.7931 332.093 17.4371 335.362L13.8356 327.075L14.2133 327.035L16.895 328.968C20.0916 332.035 24.1286 340.508 26.4191 344.792C29.907 349.999 33.1818 352.11 29.1298 357.598Z" fill="#DD2443"/>
<path d="M29.1262 357.601L25.7979 355.835L23.3877 359.042C17.0227 353.584 6.63513 341.68 0.924563 334.966L-5.48577 327.629C-8.2049 324.071 -21.7617 307.216 -24.7085 305.393C-38.0237 290.624 -50.5224 274.998 -63.244 259.709C-75.5145 249.533 -89.6633 237.578 -98.5453 224.273C-107.6 215.218 -119.52 204.889 -123.263 192.187C-124.075 189.659 -124.32 186.632 -126.889 185.467C-132.232 183.048 -140.769 190.564 -144.624 183.554L-142.71 182.936C-139.428 182.797 -135.125 183.206 -132.403 181.191C-137.436 176.256 -147.944 173.979 -155.103 167.743C-158.321 166.611 -161.318 165.706 -164.033 163.567C-166.778 159.852 -172.241 155.219 -171.449 150.345C-171.373 149.871 -171.274 149.405 -171.187 148.936L-166.635 148.646L-166.695 146.492C-168.732 138.109 -170.142 129.589 -171.677 121.104C-164.36 124.457 -156.781 128.661 -149.104 131.058L-146.212 132.392C-138.822 137.04 -132.73 142.424 -126.628 148.647C-122.706 156.08 -121.731 163.25 -120.452 171.455L-120.472 172.526C-120.59 172.979 -120.74 173.419 -120.831 173.879C-120.85 173.962 -121.207 176.517 -121.192 176.573C-121.138 176.775 -115.003 180.125 -114.414 180.498C-105.014 186.433 -97.0616 193.693 -90.4809 202.654C-83.9425 208.556 -55.1343 249.947 -48.7583 259.968C-38.9626 272.062 -29.0372 284.049 -18.9821 295.928C-16.7727 302.305 -1.32084 320.734 3.59461 326.356C3.42756 325.454 3.46621 326.052 3.89167 324.562C8.05226 326.417 13.7895 332.096 17.4335 335.365L13.832 327.078L14.2097 327.038L16.8914 328.971C20.088 332.038 24.125 340.511 26.4156 344.795C29.9034 350.002 33.1783 352.113 29.1262 357.601Z" fill="#2C3754"/>
<path d="M265.956 639.959C262.388 638.595 259.843 636.885 256.595 637.499L255.904 638.409L257.953 643.585C251.665 640.427 233.131 615.695 226.878 608.781C229.684 616.073 232.43 622.521 233.911 630.244L231.631 629.634C227.217 616.426 222.349 607.754 215.128 596.054C204.103 582.507 192.991 569.033 181.792 555.629L173.851 555.115C179.891 571.9 187.719 583.597 190.333 602.457C193.035 621.955 192.785 649.47 178.277 664.741C160.768 641.833 149.121 584.351 142.292 556.034C139.642 545.045 133.009 524.711 131.232 514.457C128.481 503.505 123.693 493.835 119.226 483.474L117.653 481.387C120.819 477.168 118.651 478.723 119.644 475.996L114.511 469.336C115.61 467.588 116.245 467.321 117.91 466.102C120.461 467.185 148.111 499.108 152.697 503.853C155.022 505.467 173.247 527.166 176.356 530.794C190.98 549.266 229.144 596.478 245.659 608.047L245.834 609.127L234.957 602.926C245.088 615.406 255.783 627.461 265.956 639.959Z" fill="#007D44"/>
<path d="M265.956 639.959C262.388 638.595 259.843 636.885 256.595 637.499L255.904 638.409L257.953 643.585C251.665 640.427 233.131 615.695 226.878 608.781C229.684 616.073 232.43 622.521 233.911 630.244L231.631 629.634C227.217 616.426 222.349 607.754 215.128 596.054C204.103 582.507 192.991 569.033 181.792 555.629L173.851 555.115L169.896 550.488C167.504 544.67 161.318 533.479 160.518 529.141C155.744 523.155 150.009 515.545 144.754 510.178C139.81 507.66 135.781 502.315 132.22 497.963C132.648 503.603 133.354 504.755 135.665 509.844L135.124 512.442L131.232 514.457C128.481 503.505 123.693 493.835 119.226 483.474L117.653 481.387C120.819 477.168 118.651 478.723 119.644 475.996L114.511 469.336C115.61 467.588 116.245 467.321 117.91 466.102C120.461 467.185 148.111 499.108 152.697 503.853C155.022 505.467 173.247 527.166 176.356 530.794C190.98 549.266 229.144 596.478 245.659 608.047L245.834 609.127L234.957 602.926C245.088 615.406 255.783 627.461 265.956 639.959Z" fill="#2C3754"/>
<path d="M80.401 454.58C78.0642 468.704 75.0723 471.395 67.7092 483.931C61.8304 476.125 56.0231 468.178 52.0871 459.169C51.1464 454.626 50.4704 452.272 50.7806 447.538L48.4586 447.797L44.4839 452.933C26.4663 466.463 21.0639 464.188 0.245814 469.586L-9.88818 472.817L-3.74213 464.467C6.97696 440.916 8.70881 433.701 30.2299 419.273C16.2157 415.625 7.81211 407.384 -1.55084 396.45C8.10363 392.413 13.5764 389.482 24.1261 389.767L27.6711 389.998L29.5563 390.635L30.797 389.153C21.1003 375.553 26.3553 367.204 23.4673 358.967L25.8776 355.761L29.2059 357.527C41.0095 360.644 46.3846 363.078 55.576 370.869C54.5596 376.217 59.1991 380.056 63.2974 382.496C64.0293 384.996 63.8294 388.488 63.876 391.228C64.9182 392.881 64.5285 392.671 64.627 395.012C62.3282 397.715 63.7474 396.906 60.2053 397.48L60.9196 400.46L60.2068 401.12L58.7724 402.75C57.8881 405.154 57.0076 408.692 56.2907 411.245L57.9557 417.117L62.4655 420.625L64.4576 421.229L68.7007 421.975C69.7402 426.163 72.2192 436.108 75.5248 438.345L78.3306 439.573C79.3386 442.035 79.7534 444.428 80.3298 447.029C79.8494 449.153 80.2397 452.292 80.401 454.58Z" fill="#DD2443"/>
<path d="M80.1799 454.764C77.8431 468.888 74.8512 471.579 67.4881 484.115C61.6093 476.309 55.802 468.362 51.866 459.353L52.8798 456.499L54.9145 456.136C58.9322 457.768 61.1627 460.911 64.1478 464.194L66.0903 466.4C72.1134 464.435 74.4796 444.415 75.3037 438.529L78.1095 439.757C79.1175 442.218 79.5323 444.612 80.1087 447.213C79.6283 449.337 80.0186 452.475 80.1799 454.764Z" fill="#CD2A37"/>
<path d="M64.2915 464.161C61.3064 460.877 59.0758 457.734 55.0581 456.103L53.0235 456.465L52.0096 459.319C51.0689 454.776 50.3929 452.422 50.7032 447.688C51.7256 442.363 51.7803 441.099 56.2191 438.123C56.7312 437.794 57.2426 437.465 57.7657 437.154C56.9508 445.044 57.1923 448.896 59.4806 456.357C61.0494 458.983 62.6507 461.581 64.2915 464.161Z" fill="#DE262B"/>
<path d="M64.2408 421.333C61.8595 429.416 61.3712 432.067 60.2348 440.334C59.4401 446.086 60.8811 453.445 59.3413 456.312C57.053 448.85 56.8115 444.998 57.6264 437.108L58.3101 430.886L54.8477 434.543C54.5464 429.564 59.7258 424.961 62.2487 420.729L64.2408 421.333Z" fill="#F7C804"/>
<path d="M60.2498 401.171L58.8154 402.801C52.3212 403.582 50.6092 403.43 44.615 400.073L44.8509 397.386C40.2369 394.758 37.4572 391.072 34.5889 386.651L33.3302 386.424L34.2458 389.619L32.9119 390.398C32.4067 390.079 31.3372 389.311 30.84 389.204C21.1433 375.604 26.3983 367.255 23.5104 359.018L25.9206 355.812L29.2489 357.578C41.0525 360.694 46.4276 363.128 55.619 370.92C54.6026 376.268 59.2422 380.107 63.3404 382.547C64.0723 385.047 63.8724 388.539 63.919 391.279C64.9612 392.932 64.5715 392.722 64.67 395.063C62.3712 397.766 63.7905 396.957 60.2483 397.531L60.9626 400.511L60.2498 401.171Z" fill="#E62536"/>
<path d="M60.2562 401.165L58.8218 402.795C52.3276 403.577 50.6157 403.424 44.6215 400.068L44.8574 397.38C40.2434 394.752 37.4636 391.066 34.5954 386.645C33.655 381.294 31.063 371.798 30.9888 367.261L31.3197 367.068C34.036 367.33 35.8599 369.73 38.3117 371.868L43.5208 377.63L60.2548 397.525L60.969 400.505L60.2562 401.165Z" fill="#ED7021"/>
<path d="M60.8899 400.409L60.1771 401.07L58.882 401.461C50.5605 390.415 38.1294 377.608 30.9097 367.165L31.2405 366.973C33.9568 367.235 35.7807 369.635 38.2325 371.773L43.4416 377.534L60.1756 397.43L60.8899 400.409Z" fill="#EED821"/>
<path d="M60.2049 401.209L58.7705 402.838C52.2763 403.62 50.5644 403.468 44.5701 400.111L44.806 397.424C48.9119 399.817 54.1657 401.27 58.9099 401.6L60.2049 401.209Z" fill="#EB5C25"/>
<path d="M63.6692 391.242C64.7113 392.895 64.3217 392.684 64.4201 395.025C62.1214 397.729 63.5406 396.92 59.9985 397.494L43.2645 377.598C45.292 379.199 47.362 380.765 49.4593 382.28L51.0504 382.026C51.3484 378.576 51.336 377.696 53.4172 374.913C56.8443 378.76 60.8416 386.445 63.6692 391.242Z" fill="#ED7021"/>
<path d="M53.459 374.945C51.3778 377.728 51.3901 378.607 51.0922 382.058L49.5011 382.312C47.4037 380.796 45.3338 379.231 43.3062 377.63L38.0972 371.868C40.6064 370.208 41.0158 369.923 43.8076 368.877C47.911 369.164 50.2079 372.047 53.459 374.945Z" fill="#EB5C25"/>
<path d="M57.3248 417.913L56.26 417.237C52.9708 414.165 46.3762 414.975 42.7349 417.042C36.2301 416.504 33.2937 413.715 27.3316 412.289C29.4854 414.551 30.5475 415.544 32.2125 418.145L30.2694 419.225C16.2552 415.576 7.85166 407.335 -1.51129 396.401C8.14318 392.365 13.6159 389.434 24.1656 389.718L27.7107 389.949L29.5959 390.587L30.8366 389.104C31.3337 389.212 32.4032 389.98 32.9085 390.299L34.2424 389.52L33.3267 386.324L34.5855 386.552C37.4537 390.972 40.2335 394.659 44.8474 397.287L44.6115 399.974C50.6058 403.331 52.3177 403.483 58.8119 402.701C57.9277 405.106 57.0471 408.643 56.3303 411.196L57.9952 417.068L57.3248 417.913Z" fill="#ED7021"/>
<path d="M27.2381 412.3C29.392 414.562 30.4541 415.556 32.1191 418.156L30.176 419.236C16.1618 415.587 7.75825 407.347 -1.6047 396.412C8.04977 392.376 13.5225 389.445 24.0722 389.729L27.6173 389.96L29.5025 390.598L30.7432 389.116C31.2403 389.223 32.3098 389.991 32.8151 390.31L34.149 389.531L33.2333 386.336L34.4921 386.563C37.3603 390.983 40.14 394.67 44.754 397.298L44.5181 399.985C38.0971 397.421 24.2238 393.641 19.3239 399.984C20.0707 402.375 21.6034 405.633 20.9808 407.916C22.8106 410.489 24.287 410.85 27.2381 412.3Z" fill="#CD2A37"/>
<path d="M57.1653 418.045L56.1005 417.369C52.8113 414.298 46.2167 415.108 42.5754 417.175C36.0706 416.637 33.1342 413.848 27.172 412.421C24.2208 410.972 22.7444 410.61 20.9147 408.038C23.3325 407.836 25.3768 409.177 28.2178 409.883C39.7814 412.747 44.7098 413.581 56.1707 411.329L57.8357 417.201L57.1653 418.045Z" fill="#F6A004"/>
<path d="M57.7216 437.155C57.1984 437.467 56.6871 437.796 56.1749 438.125C51.7361 441.101 51.6814 442.364 50.659 447.69L48.337 447.949L44.3623 453.085L44.6705 450.488L40.0156 450.878C39.0021 449.817 38.0234 448.823 37.0735 447.71L30.4077 448.784C26.6213 449.534 23.3367 450.209 19.4865 450.67C22.338 442.881 25.3554 434.023 28.6793 426.512C32.4168 424.803 42.7804 421.464 42.5737 417.242C46.215 415.175 52.8097 414.365 56.0989 417.437L57.1637 418.113L57.8341 417.268L62.3439 420.777C59.8209 425.008 54.6415 429.612 54.9428 434.59L58.4052 430.934L57.7216 437.155Z" fill="#E94627"/>
<path d="M57.7216 437.155C57.1984 437.467 56.6871 437.796 56.1749 438.125C51.7361 441.101 51.6814 442.364 50.659 447.69L48.337 447.949L44.3623 453.085L44.6705 450.488L40.0156 450.878C39.0021 449.817 38.0234 448.823 37.0735 447.71L30.4077 448.784C31.262 446.473 31.8477 445.535 31.4868 443.097C43.207 435.072 47.6995 431.655 57.0577 420.487L57.1637 418.113L57.8341 417.268L62.3439 420.777C59.8209 425.008 54.6415 429.612 54.9429 434.59L58.4052 430.934L57.7216 437.155Z" fill="#ED7021"/>
<path d="M48.2581 448.014L44.2835 453.15L44.5917 450.553L39.9367 450.943C38.9232 449.882 37.9445 448.888 36.9946 447.775C39.5485 446.119 42.1151 444.48 44.6926 442.859L46.6214 443.323L48.2581 448.014Z" fill="#E94627"/>
<path d="M57.2453 418.096L57.1393 420.469C47.7811 431.638 43.2886 435.055 31.5684 443.08L28.4167 443.138C29.1941 436.223 49.7156 421.448 56.1805 417.42L57.2453 418.096Z" fill="#F1EA3A"/>
<path d="M163.427 495.171C168.556 496.208 185.861 504.309 191.461 506.749C226.691 522.107 260.382 536.261 291.655 559.078C295.782 562.088 302.811 566.452 305.527 570.479L304.732 571.743L301.795 571.199C299.426 571.702 291.955 573.145 290.045 573.82C269.567 582.409 222.092 573.247 210.594 555.433C205.643 552.36 176.954 530.979 176.287 530.822C173.178 527.194 154.953 505.495 152.628 503.881L150.801 497.843C145.688 491.482 141.494 485.425 136.851 478.755L139.669 478.632C148.697 486.627 153.144 489.298 163.427 495.171Z" fill="#016B44"/>
<path d="M163.427 495.171C168.556 496.208 185.861 504.309 191.461 506.749C226.691 522.107 260.382 536.261 291.655 559.078C295.782 562.088 302.811 566.452 305.527 570.479L304.732 571.743L301.795 571.199C296.475 563.804 271.588 549.943 263.161 544.838C236.095 528.442 203.247 519.12 176.074 503.254L163.427 495.171Z" fill="white"/>
<path d="M176.131 503.322C173.236 504.057 171.809 504.407 168.858 504.751C167.025 503.345 154.928 493.777 153.723 493.684L156.118 497.211L150.859 497.911C145.746 491.55 141.551 485.493 136.909 478.823L139.726 478.7C148.755 486.696 153.202 489.367 163.485 495.239L176.131 503.322Z" fill="#0F924D"/>
<path d="M2.28969 341.696C5.14144 345.952 8.03685 350.419 11.1034 354.51C6.12878 351.073 -11.477 338.253 -15.6453 336.158C-24.3056 334.687 -70.579 316.907 -76.2832 312.283C-99.1969 303.584 -125.548 293.566 -144.179 277.217L-151.978 272.827C-151.783 272.61 -151.61 272.371 -151.392 272.176C-142.786 264.192 -123.157 262.026 -112.006 262.619C-89.3563 263.817 -59.5058 275.322 -44.2575 292.455C-37.7031 297.154 -31.4608 303.631 -24.2249 307.12L-24.5955 305.306C-21.6486 307.129 -8.09187 323.983 -5.37275 327.542L1.03759 334.879L-0.98978 336.002L2.28969 341.696Z" fill="#007D41"/>
<path d="M17.3981 335.406C13.7541 332.136 8.01681 326.458 3.85622 324.603C3.43075 326.092 3.3921 325.495 3.55916 326.396C-1.35629 320.775 -16.8082 302.346 -19.0176 295.968C-20.0274 288.279 -26.2111 279.467 -29.2477 272.12C-31.7461 266.079 -33.5416 259.822 -35.284 253.522C-44.4006 237.948 -44.1861 212.652 -39.5787 195.601C-37.0785 186.352 -32.6909 175.384 -25.4635 168.764C2.73341 213.537 -4.07939 276.647 16.8559 329.012L14.1743 327.078L13.7966 327.118L17.3981 335.406Z" fill="#016B44"/>
<path d="M-25.5021 168.717C-37.0407 196.522 -40.7004 223.859 -35.3225 253.475C-44.4391 237.901 -44.2246 212.605 -39.6172 195.555C-37.117 186.305 -32.7295 175.337 -25.5021 168.717Z" fill="white"/>
<path d="M14.2267 327.035L13.8491 327.075C-4.87725 301.908 -27.395 245.341 -25.7215 214.247C-18.9581 244.451 -12.8634 271.515 -0.289159 300.136C3.52982 308.832 9.67197 317.404 13.8427 326.205L14.2267 327.035Z" fill="#C3BC20"/>
<path d="M110.186 399.243C106.774 399.983 103.365 400.775 99.9835 401.64L99.9103 405.767C94.3543 405.55 89.7549 405.455 84.1856 405.729L80.2061 407.214L76.9047 402.264C71.6271 398.613 66.5689 396.162 60.7839 400.584L60.0697 397.605C63.6118 397.03 62.1925 397.84 64.4913 395.136C64.3928 392.795 64.7825 393.005 63.7403 391.353C63.6937 388.612 63.8936 385.12 63.1618 382.621C59.0635 380.18 54.424 376.341 55.4403 370.994C55.378 369.526 55.3905 368.092 55.1091 366.669L55.8533 365.339C58.4847 353.64 62.5263 347.121 68.4456 336.906C76.2365 349.598 81.8834 354.038 82.7225 370.273C82.7764 372.898 82.7933 375.525 82.768 378.147C83.1078 377.564 83.4518 376.977 83.8191 376.412C97.4206 354.956 121.029 351.169 143.682 346.177C134.949 365.573 130.624 386.728 110.049 396.961L110.186 399.243Z" fill="#EF811F"/>
<path d="M143.691 346.188C134.958 365.584 130.633 386.739 110.058 396.972L102.061 397.648L100.02 395.975C104.028 391.291 112.841 380.561 111.686 374.389C109.021 372.701 110.51 373.244 106.914 373.288L105.527 373.715C93.6918 377.277 91.787 373.439 85.2169 381.155L82.7771 378.158C83.1169 377.575 83.4609 376.988 83.8283 376.423C97.4297 354.968 121.039 351.18 143.691 346.188Z" fill="#DD2443"/>
<path d="M110.283 399.161C106.871 399.902 103.462 400.693 100.081 401.559L100.008 405.685C94.4517 405.468 89.8522 405.374 84.2829 405.647L80.3034 407.133L77.002 402.182L76.8579 401.494L75.8569 398.945C80.7111 391.915 92.5944 385.753 99.3557 380.054C101.111 377.98 104.805 375.076 107.002 373.196C110.599 373.151 109.11 372.609 111.774 374.296C112.929 380.469 104.116 391.198 100.109 395.882L102.149 397.555L110.146 396.88L110.283 399.161Z" fill="#F6A004"/>
<path d="M110.173 399.253C106.761 399.993 103.352 400.785 99.9707 401.651L99.8975 405.777C94.3416 405.56 89.7421 405.466 84.1728 405.739C87.0947 402.34 95.7244 397.649 99.9984 395.974L102.039 397.647L110.036 396.972L110.173 399.253Z" fill="#EB5C25"/>
<path d="M110.173 399.253C106.761 399.993 103.352 400.785 99.9707 401.651L96.6756 401.951C97.3049 399.676 99.8299 398.797 102.039 397.647L110.036 396.972L110.173 399.253Z" fill="#EF811F"/>
<path d="M99.4402 379.93L100.743 380.6C98.3073 386.264 82.7226 398.731 76.9424 401.37L75.9414 398.82C80.7956 391.79 92.679 385.628 99.4402 379.93Z" fill="#F1EA3A"/>
<path d="M82.7557 370.23C79.6064 370.67 79.7675 370.618 76.7475 369.541C75.5001 366.087 74.4154 362.58 72.5878 359.431C70.8173 357.452 70.995 357.51 68.4427 356.838L66.4138 358.14C62.5936 364.448 63.2292 375.117 63.195 382.578C59.0967 380.138 54.4572 376.299 55.4735 370.951C55.4112 369.483 55.4237 368.049 55.1424 366.627L55.8865 365.297C58.5179 353.597 62.5595 347.078 68.4788 336.864C76.2697 349.555 81.9167 353.995 82.7557 370.23Z" fill="#CD2A37"/>
<path d="M85.2234 381.028C78.001 385.878 79.7895 393.112 74.4247 396.131C76.3748 386.216 77.7607 379.671 76.7299 369.467C79.7499 370.545 79.5888 370.597 82.7381 370.157C82.7921 372.782 82.8089 375.409 82.7836 378.031L85.2234 381.028Z" fill="#E72A29"/>
<path d="M74.303 396.273L72.2335 397.787L71.2648 396.634C72.1454 391.372 73.308 386.861 73.396 381.573C73.5061 374.322 71.4904 366.428 72.4485 359.5C74.2762 362.649 75.3609 366.156 76.6083 369.61C77.6391 379.814 76.2532 386.358 74.303 396.273Z" fill="#EED821"/>
<path d="M105.116 430.71C108.951 435.751 115.779 458.729 113.709 464.5L111.865 464.431C97.8222 460.614 90.8352 459.697 80.795 448.819L80.1513 447.136C79.5748 444.535 79.16 442.142 78.1521 439.68L75.3463 438.452C72.0406 436.216 69.5617 426.27 68.5222 422.082L73.2353 420.385L75.7068 419.413L79.6204 414.218L80.1633 407.197L84.1428 405.712C89.7121 405.438 94.3115 405.533 99.8674 405.749L99.9406 401.623C103.322 400.758 106.731 399.966 110.143 399.226C122.715 400.937 132.963 412.917 142.44 421.58C130.54 426.839 122.413 429.948 109.46 428.881L107.265 428.583L105.116 430.71Z" fill="#EF811F"/>
<path d="M105.216 430.627C109.051 435.668 115.879 458.646 113.809 464.417L111.964 464.348C97.922 460.531 90.935 459.614 80.8948 448.736L80.2511 447.053C79.6746 444.452 79.2599 442.059 78.2519 439.597L75.4461 438.369C72.1404 436.133 69.6615 426.187 68.622 422L73.3351 420.302L75.8066 419.33L78.5289 418.219C82.7964 420.82 86.4676 422.862 90.8962 425.193L92.5456 423.754L94.1779 422.384L98.21 423.32C100.475 425.996 102.737 428.169 105.216 430.627Z" fill="#FDB902"/>
<path d="M105.216 430.627C109.051 435.668 115.879 458.646 113.809 464.417L111.964 464.348C109.173 460.233 105.704 455.367 103.604 450.924L101.902 449.82L101.622 447.63C101.112 441.62 95.8622 428.719 92.5456 423.754L94.1779 422.384L98.21 423.32C100.475 425.996 102.737 428.169 105.216 430.627Z" fill="#DD2443"/>
<path d="M101.897 449.751L103.599 450.856C105.699 455.299 109.168 460.165 111.959 464.28C97.917 460.463 90.93 459.546 80.8898 448.668L80.2461 446.985C79.6697 444.384 79.2549 441.991 78.2469 439.529C89.3622 443.012 87.5968 447.203 101.897 449.751Z" fill="#DE262B"/>
<path d="M92.6156 423.811C95.9321 428.776 101.182 441.676 101.691 447.686C95.06 442.19 90.3863 438.16 84.3397 432.068C80.729 428.428 76.5404 421.696 73.4051 420.358L75.8766 419.387L78.5989 418.275C82.8664 420.876 86.5375 422.919 90.9662 425.249L92.6156 423.811Z" fill="#EF811F"/>
<path d="M68.4987 422.12C74.4077 425.466 74.756 432.267 75.3228 438.49C72.0171 436.253 69.5382 426.308 68.4987 422.12Z" fill="#E7D75E"/>
<path d="M142.456 421.6C130.556 426.859 122.43 429.968 109.477 428.901L107.282 428.603L105.133 430.73C102.654 428.272 100.392 426.1 98.1268 423.423C104.583 424.233 107.385 424.52 113.647 423.069C119.214 421.524 118.967 422.442 122.667 418.807C123.821 414.057 120.113 411.141 115.798 409.743C110.251 407.137 106.005 406.461 99.8841 405.77L99.9572 401.644C103.339 400.778 106.747 399.986 110.16 399.246C122.732 400.958 132.979 412.937 142.456 421.6Z" fill="#D22934"/>
<path d="M113.75 423.077C107.488 424.527 104.686 424.241 98.2298 423.43L94.1977 422.495L92.5654 423.865L90.916 425.303C86.4874 422.973 82.8162 420.93 78.5487 418.329L75.8265 419.441L79.74 414.246C89.1944 415.016 107.86 414.965 113.75 423.077Z" fill="#EB5C25"/>
<path d="M92.6563 423.786L91.0069 425.224C86.5782 422.894 82.9071 420.851 78.6396 418.25C83.7308 415.321 89.8912 419.307 92.6563 423.786Z" fill="#EED821"/>
<path d="M115.86 409.743L114.879 411.132C105.984 408.939 82.3471 408.603 80.2418 407.217L84.2213 405.732C89.7906 405.459 94.39 405.553 99.946 405.77C106.067 406.461 110.313 407.137 115.86 409.743Z" fill="#EED821"/>
<path d="M225.772 484.455C193.115 489.12 187.454 483.611 160.772 464.409C152.517 458.468 140.561 451.987 131.559 447.132L130.839 442.145C174.084 466.15 179.727 429.705 225.772 484.455Z" fill="#016392"/>
<path d="M206.128 471.464C189.756 473.826 185.108 470.925 171.84 462.331L173.716 457.173C187.676 461.524 193.766 464.007 206.128 471.464Z" fill="#E62536"/>
<path d="M171.788 462.311C166.605 459.799 160.979 457.204 155.995 454.404C161.883 455.126 167.928 455.717 173.664 457.153L171.788 462.311Z" fill="#E62536"/>
<path d="M46.1921 321.056C44.036 318.371 36.7129 305.373 36.0953 304.832C36.3276 307.171 36.815 308.067 37.6669 310.192L35.8014 309.935C21.0456 281.182 21.3865 271.194 29.9713 241.258C31.2912 243.091 32.585 244.945 33.8459 246.813C53.9031 276.268 52.7348 287.218 46.1921 321.056Z" fill="#016392"/>
<path d="M42.9412 309.281C41.5435 309.32 41.4502 308.987 40.3379 308.227C36.6064 294.873 34.0805 281.777 34.9192 267.83C35.7506 267.701 36.4284 268.123 37.2031 268.397C43.6038 280.629 45.5359 295.723 42.9412 309.281Z" fill="#E62536"/>
<path d="M75.6917 419.401L73.2202 420.373L68.5071 422.071L64.2639 421.325L62.2719 420.721L57.762 417.212L56.0971 411.341C56.8139 408.788 57.6945 405.25 58.5787 402.845L60.0131 401.216L60.7259 400.555C66.5109 396.133 71.5691 398.584 76.8467 402.235L80.1482 407.185L79.6053 414.207L75.6917 419.401Z" fill="#2C3754"/>
<path d="M72.681 413.442C70.6633 415.72 67.2273 416.042 64.8529 414.168C62.4777 412.295 61.9991 408.887 63.7627 406.409C64.9874 404.68 67.0633 403.763 69.1568 404.022C71.2503 404.282 73.0246 405.683 73.7635 407.656C74.5016 409.63 74.0829 411.853 72.681 413.442Z" fill="#FDB902"/>
<path d="M55.9166 365.259L55.1725 366.589C44.8783 348.365 44.1656 327.467 35.7721 309.868L37.6375 310.126C36.7857 308 36.2983 307.104 36.066 304.765C36.6836 305.306 44.0067 318.304 46.1628 320.989C47.4782 341.264 53.3839 348.377 55.9166 365.259Z" fill="#177D78"/>
<path d="M80.9562 448.7C87.8901 466.402 92.3246 471.615 98.6453 492.564L92.7799 492.92C89.9943 476.809 84.763 468.671 80.3836 454.568C80.2223 452.279 79.832 449.141 80.3125 447.017L80.9562 448.7Z" fill="#177D78"/>
<path d="M27.5535 390.129L24.0084 389.898C9.93171 381.168 4.30215 376.619 -11.6815 372.279C-9.35704 370.69 -8.86252 370.622 -8.73527 367.245C5.3461 372.959 15.6778 381.063 27.5535 390.129Z" fill="#028E73"/>
<path d="M131.699 447.044C124.108 442.549 113.335 435.085 107.42 428.46L109.614 428.759L130.98 442.056L131.699 447.044Z" fill="#076862"/>
<path d="M134.649 474.14L133.347 474.77C130.781 471.892 127.694 469.227 127.077 465.633L128.886 466.102C132.072 469.177 132.513 470.207 134.649 474.14Z" fill="#F9FAE9"/>
<path d="M139.658 478.714L136.841 478.837L133.378 474.801L134.68 474.171L139.658 478.714Z" fill="#9BA733"/>
</svg>
